<?xml version="1.0" standalone="no"?><!DOCTYPE svg PUBLIC "-//W3C//DTD SVG 1.1//EN" "http://www.w3.org/Graphics/SVG/1.1/DTD/svg11.dtd"><svg t="1499767765876" class="icon" style="" viewBox="0 0 1024 1024" version="1.1" xmlns="http://www.w3.org/2000/svg" p-id="3759" xmlns:xlink="http://www.w3.org/1999/xlink" width="200" height="200"><defs><style type="text/css"></style></defs><path d="M1005.120319 936.70987h-50.025922V318.021934c0-16.845464-8.677966-32.159521-23.481556-40.327019l-253.192422-148.035892c-14.293121-8.677966-32.66999-8.677966-46.963111-0.510469-14.293121 8.677966-23.481555 23.992024-23.481555 40.327019v766.21336h-53.088734V49.004985c0-15.824526-8.167498-30.628116-21.439681-39.306082-13.272183-8.677966-29.607178-10.209372-44.410768-4.083748L94.444347 176.111665c-17.355932 7.657029-28.586241 24.502493-28.586241 43.389831v717.718843H16.342652c-9.188435 0-16.334995 7.657029-16.334995 16.334995v54.109671c0 9.188435 7.657029 16.334995 16.334995 16.334995h988.267198c9.188435 0 16.334995-7.657029 16.334995-16.334995v-54.109671c0.510469-9.698903-6.636092-16.845464-15.824526-16.845464zM273.108355 879.537388c0 9.188435-7.657029 16.334995-16.334995 16.334995H204.195095c-9.188435 0-16.334995-7.657029-16.334995-16.334995V826.959123c0-9.188435 7.657029-16.334995 16.334995-16.334995h52.578265c9.188435 0 16.334995 7.657029 16.334995 16.334995v52.578265z m0-132.211366c0 9.188435-7.657029 16.334995-16.334995 16.334995H204.195095c-9.188435 0-16.334995-7.657029-16.334995-16.334995v-52.578265c0-9.188435 7.657029-16.334995 16.334995-16.334995h52.578265c9.188435 0 16.334995 7.657029 16.334995 16.334995v52.578265z m0-132.211366c0 9.188435-7.657029 16.334995-16.334995 16.334995H204.195095c-9.188435 0-16.334995-7.657029-16.334995-16.334995v-52.578265c0-9.188435 7.657029-16.334995 16.334995-16.334995h52.578265c9.188435 0 16.334995 7.657029 16.334995 16.334995v52.578265z m0-132.721834c0 9.188435-7.657029 16.334995-16.334995 16.334995H204.195095c-9.188435 0-16.334995-7.657029-16.334995-16.334995V429.814556c0-9.188435 7.657029-16.334995 16.334995-16.334995h52.578265c9.188435 0 16.334995 7.657029 16.334995 16.334995v52.578266z m0-132.211366c0 9.188435-7.657029 16.334995-16.334995 16.334995H204.195095c-9.188435 0-16.334995-7.657029-16.334995-16.334995V297.60319c0-9.188435 7.657029-16.334995 16.334995-16.334995h52.578265c9.188435 0 16.334995 7.657029 16.334995 16.334995v52.578266z m159.77667 529.355932c0 9.188435-7.657029 16.334995-16.334995 16.334995H363.971765c-9.188435 0-16.334995-7.657029-16.334995-16.334995V826.959123c0-9.188435 7.657029-16.334995 16.334995-16.334995H416.039561c9.188435 0 16.334995 7.657029 16.334995 16.334995l0.510469 52.578265z m0-132.211366c0 9.188435-7.657029 16.334995-16.334995 16.334995H363.971765c-9.188435 0-16.334995-7.657029-16.334995-16.334995v-52.578265c0-9.188435 7.657029-16.334995 16.334995-16.334995H416.039561c9.188435 0 16.334995 7.657029 16.334995 16.334995l0.510469 52.578265z m0-132.211366c0 9.188435-7.657029 16.334995-16.334995 16.334995H363.971765c-9.188435 0-16.334995-7.657029-16.334995-16.334995v-52.578265c0-9.188435 7.657029-16.334995 16.334995-16.334995H416.039561c9.188435 0 16.334995 7.657029 16.334995 16.334995l0.510469 52.578265z m0-132.721834c0 9.188435-7.657029 16.334995-16.334995 16.334995H363.971765c-9.188435 0-16.334995-7.657029-16.334995-16.334995V429.814556c0-9.188435 7.657029-16.334995 16.334995-16.334995H416.039561c9.188435 0 16.334995 7.657029 16.334995 16.334995l0.510469 52.578266z m0-132.211366c0 9.188435-7.657029 16.334995-16.334995 16.334995H363.971765c-9.188435 0-16.334995-7.657029-16.334995-16.334995V297.60319c0-9.188435 7.657029-16.334995 16.334995-16.334995H416.039561c9.188435 0 16.334995 7.657029 16.334995 16.334995l0.510469 52.578266z m0-132.721835c0 9.188435-7.657029 16.334995-16.334995 16.334995H363.971765c-9.188435 0-16.334995-7.657029-16.334995-16.334995V164.881356c0-9.188435 7.657029-16.334995 16.334995-16.334995H416.039561c9.188435 0 16.334995 7.657029 16.334995 16.334995l0.510469 52.578265z m389.998006 662.077767c0 9.188435-7.657029 16.334995-16.334995 16.334995h-52.578265c-9.188435 0-16.334995-7.657029-16.334995-16.334995V826.959123c0-9.188435 7.657029-16.334995 16.334995-16.334995h52.578265c9.188435 0 16.334995 7.657029 16.334995 16.334995v52.578265z m0-132.211366c0 9.188435-7.657029 16.334995-16.334995 16.334995h-52.578265c-9.188435 0-16.334995-7.657029-16.334995-16.334995v-52.578265c0-9.188435 7.657029-16.334995 16.334995-16.334995h52.578265c9.188435 0 16.334995 7.657029 16.334995 16.334995v52.578265z m0-132.211366c0 9.188435-7.657029 16.334995-16.334995 16.334995h-52.578265c-9.188435 0-16.334995-7.657029-16.334995-16.334995v-52.578265c0-9.188435 7.657029-16.334995 16.334995-16.334995h52.578265c9.188435 0 16.334995 7.657029 16.334995 16.334995v52.578265z m0-132.721834c0 9.188435-7.657029 16.334995-16.334995 16.334995h-52.578265c-9.188435 0-16.334995-7.657029-16.334995-16.334995V429.814556c0-9.188435 7.657029-16.334995 16.334995-16.334995h52.578265c9.188435 0 16.334995 7.657029 16.334995 16.334995v52.578266z m0-132.211366c0 9.188435-7.657029 16.334995-16.334995 16.334995h-52.578265c-9.188435 0-16.334995-7.657029-16.334995-16.334995V297.60319c0-9.188435 7.657029-16.334995 16.334995-16.334995h52.578265c9.188435 0 16.334995 7.657029 16.334995 16.334995v52.578266z" p-id="3760" class="selected" fill="#ffffff"></path></svg>