<?xml version="1.0" encoding="utf-8"?>
<!-- Generator: Adobe Illustrator 21.1.0, SVG Export Plug-In . SVG Version: 6.00 Build 0)  -->
<svg version="1.1" id="图层_1" xmlns="http://www.w3.org/2000/svg" xmlns:xlink="http://www.w3.org/1999/xlink" x="0px" y="0px"
	 viewBox="0 0 200.2 200" style="enable-background:new 0 0 200.2 200;" xml:space="preserve">
<style type="text/css">
	.st0{fill:#FFFFFF;}
	.st1{fill:#C4BCB1;}
	.st2{fill:#928B82;}
	.st3{fill:#FCE38A;}
</style>
<g>
	<path class="st0" d="M17.6,186.4c0-4.5-0.3-8.8,0.1-13c0.4-4.1,1.2-8.2,2.2-12.3c1.8-7.3,5.8-12.8,13-15.9
		c8-3.4,15.9-6.9,24.3-10.5c4,14.2,7.9,27.7,11.7,41.2c0.2,0,0.4-0.1,0.7-0.1c0.7-6.5,1.5-13,2-19.5c0.2-2.5,0.9-3.4,3.5-3.4
		c5.2,0.1,5.1,0,5.6,5c0.6,6,1.3,12,2.7,18c1.1-3.9,2.3-7.9,3.4-11.8c2.4-8.7,4.9-17.4,7.3-26.2c0.6-2.2,1.6-2.6,3.6-1.8
		c8.2,3.5,16.6,6.7,24.7,10.5c4.7,2.2,7.4,6.6,9.1,11.6c2.8,8.2,3.4,16.7,3.5,25.3c0,2.7-1.5,2.7-3.4,2.7c-15.8,0-31.6,0-47.5,0
		c-20.9,0-41.7,0-62.6,0C20.3,186.4,19.1,186.4,17.6,186.4z M107.7,170.2C107.7,170.2,107.7,170.1,107.7,170.2c-2.6,0-5.3,0-7.9,0
		c-2.7,0-3.2,1.6-3.2,3.9c0,2.3,0.5,4,3.2,4c5.3,0,10.5,0,15.8,0c2.6,0,3-1.6,2.9-3.7c0-2.1,0-4.1-2.9-4.1
		C113,170.1,110.4,170.2,107.7,170.2z"/>
	<path class="st0" d="M131.8,188.5h-0.3c-9.5,0-19,0-28.5,0H15.6v-2c0-1.4,0-2.7-0.1-4.1c-0.1-3.1-0.1-6.1,0.1-9.1
		c0.4-4.4,1.4-8.8,2.3-12.6c2-8.3,6.8-14.1,14.2-17.3c5.2-2.2,10.5-4.5,15.8-6.8l10.6-4.6l10,35c0.4-3.6,0.8-7.2,1-10.8
		c0.2-2.5,0.9-5.3,5.3-5.3l0.6,0c5.8,0.1,6.7,0.9,7.2,6.6c0.3,3.6,0.7,6.7,1.1,9.6c0.3-1.1,0.6-2.3,1-3.4l1.5-5.4
		c1.9-6.9,3.9-13.8,5.7-20.8c0.8-3.1,2.6-3.7,4-3.7c0.7,0,1.5,0.2,2.4,0.6c2.6,1.1,5.1,2.1,7.7,3.2c5.6,2.3,11.5,4.7,17.1,7.4
		c4.7,2.2,8,6.4,10.2,12.8c3.1,8.9,3.5,18.1,3.6,26c0,1.5-0.4,2.7-1.2,3.5C134.6,188.5,132.9,188.5,131.8,188.5z M103,184.3
		c9.5,0,19,0,28.5,0l0.3,2v-2c0.2,0,0.8,0,1.1-0.1c0-0.1,0-0.3,0-0.5c-0.1-7.5-0.5-16.3-3.4-24.7c-1.8-5.3-4.5-8.7-8.1-10.4
		c-5.5-2.6-11.3-5-16.9-7.3c-2.6-1.1-5.2-2.1-7.7-3.2c-0.3-0.1-0.5-0.2-0.6-0.2c0,0.1-0.1,0.3-0.2,0.6c-1.9,7-3.8,13.9-5.8,20.8
		l-1.5,5.4c-1,3.6-2,7.1-3.1,10.7l-2.6,8.8L103,184.3z M19.7,184.3h63.4l-1.7-7.8c-1.2-5.4-2-11.1-2.7-18.3
		c-0.1-1.5-0.3-2.8-0.4-3.1c-0.2,0-1.5,0-2.8,0l-0.6-2.1v2c-0.8,0-1,0.1-1,0.1l0,0c0,0-0.2,0.3-0.2,1.3c-0.3,4.8-0.9,9.6-1.4,14.3
		l-0.8,6.9l-3.4,0.4l-1.1-1.7l-11.1-38.9l-6.3,2.7c-5.3,2.3-10.6,4.6-15.8,6.8c-6.2,2.6-10.1,7.4-11.8,14.5c-0.9,3.6-1.8,7.8-2.2,12
		c-0.3,2.8-0.2,5.6-0.1,8.6C19.6,182.9,19.7,183.6,19.7,184.3z M115.6,180.1l-15.8,0c-2.4,0-5.2-1-5.2-6c0-4.9,2.9-5.9,5.2-5.9
		l15.9,0c4.8,0,4.9,4.1,4.9,6c0,1.6-0.1,3.4-1.3,4.6C118.4,179.6,117.1,180.1,115.6,180.1z M99.8,170.1v2c-0.9,0-1.1,0-1.1,1.9
		c0,1.9,0.2,1.9,1.1,1.9l15.8,0c0.5,0,0.7-0.1,0.7-0.1c0,0,0.2-0.3,0.2-1.5c0-0.8,0-1.8-0.2-2c0,0,0,0,0,0c0,0-0.2-0.1-0.7-0.1
		l-2.6,0l-7.3,0l-0.2,0l-5.7,0L99.8,170.1z"/>
	<path class="st0" d="M53.8,95.3c-0.9-10.9-2-22,9.2-28.3c9-5,18.6-4.7,27.6,0.7c6.5,4,10.1,13.2,7.7,27.2c3.1,1.7,3.6,4.6,1.5,10.4
		c-0.7,1.9-1.2,4.4-3.9,2.9c-2.3,4.2-4.4,8.3-6.9,12.2c-5.5,8.2-19.9,8.3-25.6,0.3c-1.8-2.6-3.3-5.4-5-8.1c-1-1.7-0.9-4.3-4-4.2
		c-0.6,0-1.4-1.6-1.7-2.6c-0.6-2-0.9-4-1.3-6.1C51,97.4,51.1,95.4,53.8,95.3z"/>
	<path class="st0" d="M76.1,128.6c-6,0-11.4-2.6-14.4-6.9c-1.2-1.7-2.3-3.5-3.3-5.3c-0.6-1-1.1-2-1.7-2.9c-0.3-0.5-0.6-1.2-0.8-1.8
		c-0.6-1.5-0.6-1.5-1.3-1.5h0c-2.5,0-3.7-3.4-3.9-4.1c-0.6-2.1-1-4.2-1.3-6.4c-0.3-1.5-0.4-3.5,0.8-5c0.4-0.5,0.9-0.9,1.5-1.1
		c-0.8-10.4-1.4-22,10.4-28.5c9.5-5.3,20.1-5,29.7,0.8c7.6,4.6,10.8,14.7,8.9,27.9c3.8,3,2.7,7.9,1.2,12.1l-0.2,0.5
		c-0.6,1.7-1.7,4.6-4.7,4.1c-0.4,0.8-0.9,1.6-1.3,2.4c-1.5,2.8-3.1,5.7-4.9,8.4C87.7,125.9,82.3,128.6,76.1,128.6z M55.2,106.2
		c3.1,0.3,4,2.7,4.5,4.1c0.1,0.4,0.3,0.8,0.5,1.1c0.6,1,1.2,2,1.8,3c1,1.7,2,3.4,3.1,5c2.3,3.2,6.4,5.1,11.1,5.1c4.8,0,9-2,11.2-5.3
		c1.7-2.5,3.1-5.2,4.7-8.1c0.7-1.3,1.4-2.6,2.1-3.9l1-1.8l1.8,1c0.4,0.2,0.5,0.2,0.5,0.2c-0.2-0.1,0.1-0.9,0.3-1.4l0.2-0.6
		c2.3-6.4,0.6-7.2-0.6-7.9L96,96l0.2-1.5c2-12.1-0.4-21.2-6.8-25.1c-8.3-5-17.3-5.3-25.6-0.7c-9.8,5.5-9,15.3-8.2,25.7l0.2,2.7
		l-2.1,0.1c-0.4,0-0.6,0.1-0.6,0.1l0,0c0,0-0.1,0.4,0.1,1.7c0.3,2,0.7,4,1.2,5.9C54.7,105.4,55,105.9,55.2,106.2z"/>
	<path class="st0" d="M80.5,149.1c-2.6,0-5.4,0.7-7.6-0.1c-3.6-1.3-0.9-5.2-2.1-7.7c-0.1-0.3,1.2-1.7,1.9-1.8c2.4-0.3,4.8-0.2,7.2,0
		c0.5,0,1.3,1.4,1.3,2.1C81.2,143.8,80.8,146.1,80.5,149.1z"/>
	<path class="st0" d="M75.6,151.4c-1.3,0-2.4-0.2-3.4-0.5c-3.7-1.4-3.4-4.8-3.2-6.6c0.1-0.9,0.2-1.7,0-2.2l-0.5-1l0.6-1.2
		c0.3-0.5,1.7-2.3,3.4-2.5c2.5-0.3,5.1-0.2,7.6,0c2,0.2,3.2,2.8,3.1,4.2c0,1.7-0.2,3.3-0.5,5.2l-0.5,4.4h-1.8
		c-0.8,0-1.6,0.1-2.3,0.1C77.3,151.4,76.4,151.4,75.6,151.4z M73.1,141.5c0.2,1.1,0.1,2.3,0,3.2c-0.2,2.1-0.1,2.1,0.5,2.3
		c0.9,0.3,2.5,0.3,4.2,0.2c0.3,0,0.5,0,0.8-0.1l0.1-0.9c0.2-1.8,0.4-3.3,0.4-4.8c0,0,0,0,0-0.1C77.1,141.3,75.1,141.3,73.1,141.5z"
		/>
</g>
<g>
	<path class="st1" d="M349.7,191.5v-22.1c0-0.1,0-0.2,0-0.4v-0.9h-0.1c-0.6-4.2-4.2-7.5-8.6-7.5H240.8c-4.4,0-8,3.3-8.6,7.5h-0.1
		v31.3h0v6.2c0,0.1,0,0.2,0,0.4v39.2c0,0.1,0,0.2,0,0.4v0.9h0.1c0.6,4.2,4.2,7.5,8.6,7.5H341c4.4,0,8-3.3,8.6-7.5h0.1v-48.4h0v-6.2
		C349.7,191.8,349.7,191.7,349.7,191.5L349.7,191.5z"/>
	<path class="st2" d="M349.7,191.5v-22.1c0-0.1,0-0.2,0-0.4v-0.9h-0.1c-0.6-4.2-4.2-7.5-8.6-7.5H240.8c-4.4,0-8,3.3-8.6,7.5h-0.1
		v31.3h0v6.2c0,0.1,0,0.2,0,0.4v10.5c0,0.1,0,0.2,0,0.4v0.9h0.1c0.6,4.2,4.2,7.5,8.6,7.5H341c4.4,0,8-3.3,8.6-7.5h0.1v-19.7h0v-6.2
		C349.7,191.8,349.7,191.7,349.7,191.5L349.7,191.5z"/>
	<path class="st3" d="M297.8,224.2c0,3.8-3.1,6.9-6.9,6.9s-6.9-3.1-6.9-6.9c0-3.8,3.1-6.9,6.9-6.9S297.8,220.3,297.8,224.2z"/>
	<path class="st3" d="M256.4,232.7c0,1.2-1,2.1-2.1,2.1c-1.2,0-2.1-1-2.1-2.1v-14.9c0-1.2,1-2.1,2.1-2.1c1.2,0,2.1,1,2.1,2.1V232.7z
		 M329.7,232.7c0,1.2-1,2.1-2.1,2.1c-1.2,0-2.1-1-2.1-2.1v-14.9c0-1.2,1-2.1,2.1-2.1c1.2,0,2.1,1,2.1,2.1V232.7z"/>
	<path class="st2" d="M312.5,155.6v-8.1c0,0,0-0.1,0-0.1v-0.3h0c-0.2-1.6-1.5-2.7-3.2-2.7h-36.8c-1.6,0-2.9,1.2-3.2,2.7h0v11.5h0
		v2.3c0,0,0,0.1,0,0.1v3.9c0,0,0,0.1,0,0.1v0.3h0c0.2,1.6,1.5,2.7,3.2,2.7h2.2v-1c0,0,0-0.1,0-0.1v-2.3h0v-11.8h0
		c0.2-1.6,1.2-2.8,2.4-2.8h27.7c1.2,0,2.2,1.2,2.4,2.8h0v0.3c0,0,0,0.1,0,0.1v8.3c0,0,0,0.1,0,0.1v2.3h0v4h2.2
		c1.6,0,2.9-1.2,3.2-2.7h0v-7.3h0v-2.3C312.5,155.7,312.5,155.7,312.5,155.6z"/>
</g>
<path class="st0" d="M151.6,8.2c-21.6,0-39.1,15.5-39.1,34.4c0,10.2,5.1,19.8,14,26.4v18.8L145,76.6c2.2,0.3,4.5,0.5,6.6,0.5
	c21.6,0,39.1-15.5,39.1-34.4C190.7,23.7,173.1,8.2,151.6,8.2z M140.3,66.4l6.4-19.9l-8.4-2.4l20.7-22.4L153.3,42l8.5,2.5L140.3,66.4
	z"/>
</svg>
