<svg xmlns="http://www.w3.org/2000/svg" viewBox="0 0 120 120"><defs><style>.cls-1{fill:#ff3854;opacity:0.2;}.cls-2{fill:#f45b75;}.cls-3{fill:#fff;fill-rule:evenodd;}</style></defs><title>资源 21</title><g id="图层_2" data-name="图层 2"><g id="Objects"><circle class="cls-1" cx="60" cy="60" r="60"/><circle class="cls-2" cx="60" cy="60" r="48.07"/><path class="cls-3" d="M85.13,38c-.1.63-7,35.5-7.2,36.85-.3,1.64-2.13,3.07-3.57,2.64l-3.63-1.13c.56.12,1.14-.68,1.31-1.23v0a1.13,1.13,0,0,0-.73-1.4l-3.85-1.21,7.36,2.29c.31.11.54,0,.61-.39s5.26-26.85,6.47-33c.07-.31.11-.57.16-.78.45-.56.85-1.06,1.18-1.44l1.6-1.88a1.08,1.08,0,0,0,.11-.6,1.29,1.29,0,0,0,0-.19A2.67,2.67,0,0,1,85.13,38Z"/><path class="cls-3" d="M84.83,37.29l-1.6,1.88c-.33.38-.73.88-1.18,1.44.06-.3.09-.47.1-.48l.18-.75c.11-.41.29-1,.11-1.11s-.74.18-1.63.71l-.22.13-.45.27-.61.36L38.09,61.91l15.5,5L39.69,62.49a1.12,1.12,0,0,0-1.4.73v0A2.46,2.46,0,0,0,38.63,65L36,64.11c-1.33-.43-1.65-3.21-.07-4.06S81,35.94,81.89,35.48a2.62,2.62,0,0,1,2.27.15,1.56,1.56,0,0,1,.26.2,2.11,2.11,0,0,1,.49.67,1.52,1.52,0,0,1,0,.19,1.08,1.08,0,0,1-.11.61Z"/><path class="cls-3" d="M56.82,69.68h0a1.16,1.16,0,0,1-.22.39l-.06.07a1.13,1.13,0,0,1-.93.32L54.24,70l-15.6-5a2.46,2.46,0,0,1-.34-1.74v0a1.12,1.12,0,0,1,1.4-.73L53.58,66.9l2.6.84,0,0c.73.26.84,1.35.59,1.92ZM72,75.1v0c-.17.56-.75,1.36-1.31,1.23h0l-3.21-1-.22-.07-2.39-.75-.76-.24-.29-.09-.29-.09-.65-.2-.34-.11-.33-.11-.62-.2A1.25,1.25,0,0,1,60.74,72l.13-.45a1.11,1.11,0,0,1,1.25-.76l4.63,1.44.49.16.21.07L71.3,73.7A1.1,1.1,0,0,1,72,75.1Zm4.79-31.41-5.66,6.59c-4.79,5.59-11.44,13.33-15,17.45l-2.6-.84-15.5-5L79.53,39.74l1.07-.63.22-.13-4,4.72Z"/><path class="cls-3" d="M84.83,37.29l-1.6,1.88c-.33.38-.73.88-1.18,1.44-2.12,2.65-5.3,6.84-6.53,8.28l-.09.1C68.57,57,55.82,72.22,55.58,72.5A3.09,3.09,0,0,0,55,74.12a1.57,1.57,0,0,0,0,.2l-.11,9.32a.79.79,0,0,1,0,.14,1.1,1.1,0,0,1-1.09,1,2.08,2.08,0,0,1-1.11-.32,1.06,1.06,0,0,1-.32-.75v-.39c0-2.67,0-8.14,0-9.18a5.17,5.17,0,0,1,1.42-3.53l.47-.55,2-2.28,15-17.45,5.66-6.6h0l3.31-4.31,2-2.62.73-.86a1.22,1.22,0,0,1,1.55-.07l.13.1a1.16,1.16,0,0,1,.36.57,1.51,1.51,0,0,1,0,.19,1,1,0,0,1-.1.61Z"/></g></g></svg>