<svg xmlns="http://www.w3.org/2000/svg" viewBox="0 0 120 120"><defs><style>.cls-1{fill:#4fd242;opacity:0.28;}.cls-2{fill:#6ae25d;}.cls-3{fill:#fff;fill-rule:evenodd;}</style></defs><title>资源 22</title><g id="图层_2" data-name="图层 2"><g id="Objects"><circle class="cls-1" cx="60" cy="60" r="60"/><circle class="cls-2" cx="60" cy="60" r="48.07"/><path class="cls-3" d="M53.84,43.23a1.1,1.1,0,0,0,1,.65h9.35a1.1,1.1,0,0,0,1-.61L72.56,28.5a1.1,1.1,0,0,0-1-1.59H48.34a1.1,1.1,0,0,0-1,1.54l6.5,14.77Z"/><path class="cls-3" d="M65.14,46.94a1.1,1.1,0,0,0-1.05-.78H54.81a1.1,1.1,0,0,0-1.05.79L44.58,78a1.1,1.1,0,0,0,.28,1.09L58.73,92.72a1.1,1.1,0,0,0,1.54,0L74.1,79.13A1.1,1.1,0,0,0,74.38,78L65.14,46.94Z"/><polygon class="cls-3" points="66.14 47.4 75.16 71.41 79.51 71.41 79.51 66.31 66.14 47.4 66.14 47.4"/></g></g></svg>