<?xml version="1.0" encoding="utf-8"?>
<!-- Generator: Adobe Illustrator 21.1.0, SVG Export Plug-In . SVG Version: 6.00 Build 0)  -->
<svg version="1.1" id="图层_1" xmlns="http://www.w3.org/2000/svg" xmlns:xlink="http://www.w3.org/1999/xlink" x="0px" y="0px"
	 viewBox="0 0 120 120" style="enable-background:new 0 0 120 120;" xml:space="preserve">
<style type="text/css">
	.st0{opacity:0.28;fill:#18B4ED;enable-background:new    ;}
	.st1{fill:#18B4ED;}
	.st2{fill:#FFFFFF;}
</style>
<title>资源 23</title>
<circle class="st0" cx="60" cy="60" r="60"/>
<circle class="st1" cx="60" cy="60" r="48.1"/>
<path class="st2" d="M49.4,35.4c1.1,0.8,2.1,1.8,2.9,2.9c0.7,1,1.5,2,2.3,2.9h12.7c0.8-0.8,1.5-1.6,2.1-2.5c0.8-1.3,1.8-2.3,3.1-3.1
	c1.4-0.8,1.9-2.9,0.2-3.5c-1.4-0.6-1.9,0.6-3.7,0.6c-1.6,0-1.8-1.4-3.5-2c-1.2-0.5-2.6-0.2-3.5,0.8c-1,1-1.4,1-1.4,1
	c-0.7-0.3-1.3-0.8-1.8-1.4c-0.9-0.8-2.3-0.9-3.3-0.2c-1.4,0.8-1.6,1.6-2.7,1.7c-1.4,0.2-3.3-1.4-4.5-0.4
	C47.9,33.4,48.4,34.8,49.4,35.4L49.4,35.4z M75.5,52.3c-2.7-2.3-5.1-4.9-7.2-7.8H54.5c-2,2.8-4.3,5.3-6.8,7.6
	c-4.9,4.3-8.8,11.1-7.4,19.3C41.7,78.6,48.5,87,61.5,87c12.6,0,20-6.8,21.4-15.2C84.4,61.6,79.3,55.8,75.5,52.3L75.5,52.3z
	 M68.1,73.9H63v1.8c-0.1,0.9-0.8,1.6-1.8,1.6s-1.8-0.4-1.8-1.6v-1.8h-5c-0.8,0-1.4-1-1.4-1.6c0-0.7,0.6-1.3,1.3-1.3l0,0h5.1v-3.5
	h-4.9c-0.7,0-1.3-0.5-1.4-1.2c0-0.8,0.6-1.9,1.4-1.9h4.9v-1.2c0,0-3.9-4.3-4.5-4.7c-0.6-0.6-0.8-1.6-0.4-2.3c0.8-0.8,2-0.2,2.5,0.4
	l3.9,3.9c0,0,3.7-3.5,4.5-4.1c0.7-0.6,1.7-0.6,2.3,0c0.6,0.8,0.4,1.4-0.6,2.1S62.8,63,62.8,63v1.2h4.7c1,0.2,1.7,1,1.8,1.9
	c0,0.8-0.4,1.4-1.6,1.4H63V71h4.7c1.2,0,1.8,0.6,1.8,1.4C69.4,72.9,68.8,73.9,68.1,73.9L68.1,73.9z"/>
</svg>
