<?xml version="1.0" encoding="utf-8"?>
<!-- Generator: Adobe Illustrator 21.1.0, SVG Export Plug-In . SVG Version: 6.00 Build 0)  -->
<svg version="1.1" id="图层_1" xmlns="http://www.w3.org/2000/svg" xmlns:xlink="http://www.w3.org/1999/xlink" x="0px" y="0px"
	 viewBox="0 0 200 200" style="enable-background:new 0 0 200 200;" xml:space="preserve">
<style type="text/css">
	.st0{fill:#316CA3;}
	.st1{fill:#FFFFFF;}
</style>
<path class="st0" d="M162.5,200h-125C17,200,0,183,0,162.5v-125C0,17,17,0,37.5,0h125C183,0,200,17,200,37.5v125
	C200,183,183,200,162.5,200L162.5,200z"/>
<path class="st1" d="M99.8,87.7L97,90.4c-1.7,1.7-1.8,4.5-0.1,6.3l6.8,6.9c1.7,1.7,4.5,1.8,6.3,0.1l18.6-18.2
	c1.7-1.7,1.8-4.5,0.1-6.3l-6.8-6.9c-1.7-1.7-4.5-1.8-6.3-0.1l-2.8,2.7L97.3,59.2l2.8-2.7c1.7-1.7,1.8-4.5,0.1-6.3l-6.8-6.9
	c-1.7-1.7-4.5-1.8-6.3-0.1L68.6,61.4c-1.7,1.7-1.8,4.5-0.1,6.3l6.8,6.9c1.7,1.7,4.5,1.8,6.3,0.1l2.8-2.7l0.9,0.9l-35.6,34.9
	c0,0-6.2,8.2-1.3,13.2c7.4,7.4,15.3,0.8,15.3,0.8l35.2-35.2L99.8,87.7z"/>
<path class="st1" d="M149.8,140.5h-9.6v-7.2c0-1.1-2-2-4.4-2h-2.2v-4.2c0-2.4-2-4.4-4.4-4.4l-37.4,0c-2.4,0-4.4,2-4.4,4.4v4.2h-1.6
	c-2.4,0-4.4,0.9-4.4,2v7.2H70.2c-2.1,0-3.7,1.7-3.7,3.7s1.7,3.7,3.7,3.7h79.6c2.1,0,3.7-1.7,3.7-3.7S151.9,140.5,149.8,140.5z"/>
</svg>
