<?xml version="1.0" encoding="utf-8"?>
<!-- Generator: Adobe Illustrator 21.1.0, SVG Export Plug-In . SVG Version: 6.00 Build 0)  -->
<svg version="1.1" id="图层_1" xmlns="http://www.w3.org/2000/svg" xmlns:xlink="http://www.w3.org/1999/xlink" x="0px" y="0px"
	 viewBox="0 0 200 200" style="enable-background:new 0 0 200 200;" xml:space="preserve">
<style type="text/css">
	.st0{fill:#04BE02;}
	.st1{fill:#EDD421;}
	.st2{fill:#FFFFFF;}
</style>
<title>cjxz-yes</title>
<path class="st0" d="M0,100C0,44.8,44.8,0,100,0s100,44.8,100,100s-44.8,100-100,100S0,155.2,0,100z"/>
<path class="st1" d="M118.3,132H117v-3.3c-0.1-1.9-1.7-3.3-3.6-3.2c0,0,0,0,0,0H63.1c-1.9-0.1-3.5,1.3-3.6,3.2c0,0,0,0,0,0v3.3h-1.3
	c-2.4,0-4.4,1.9-4.4,4.3c0,0,0,0,0,0v7.5c0,2.4,2,4.3,4.4,4.3c0,0,0,0,0,0h60c2.4,0,4.4-1.9,4.4-4.3c0,0,0,0,0,0v-7.5
	C122.6,133.9,120.7,132,118.3,132C118.3,132,118.3,132,118.3,132z"/>
<path class="st2" d="M128.4,76.7c1.7-0.6,2.6-2.5,2-4.2c-0.2-0.6-0.6-1.2-1.2-1.5l-25-18.4c-1.5-1.1-3.6-0.8-4.7,0.7c0,0,0,0,0,0
	c-0.4,0.4-0.6,1-0.6,1.6L128.4,76.7z"/>
<path class="st2" d="M67.4,95.6c-0.5,0.2-1,0.6-1.3,1c-1.1,1.4-0.8,3.5,0.6,4.6c0,0,0,0,0.1,0l25,18.4c1.5,1.1,3.5,0.8,4.7-0.6
	c0.4-0.5,0.6-1,0.6-1.6L67.4,95.6z"/>
<path class="st2" d="M144.4,113l-28.5-21l9.1-11.8c0.4-0.5,0.7-1.1,0.8-1.8l-27-20c-0.6,0.3-1.2,0.7-1.6,1.3L88,71.5l-1-0.8
	c-1.9-1.4-4.6-1-6.1,0.9L79.1,74c-1.4,1.8-1.1,4.4,0.6,5.8c0.1,0.1,0.2,0.1,0.3,0.2l1,0.8L71.5,93c-0.4,0.4-0.6,0.9-0.7,1.5l27.5,20
	c0.4-0.3,0.8-0.6,1.1-1l9.4-12.2l28.5,20.9c1.9,1.4,4.6,1,6.1-0.8l1.8-2.4c1.4-1.8,1.1-4.5-0.7-5.9C144.5,113.1,144.4,113,144.4,113
	z"/>
</svg>
