<?xml version="1.0" encoding="utf-8"?>
<!-- Generator: Adobe Illustrator 21.1.0, SVG Export Plug-In . SVG Version: 6.00 Build 0)  -->
<svg version="1.1" id="图层_1" xmlns="http://www.w3.org/2000/svg" xmlns:xlink="http://www.w3.org/1999/xlink" x="0px" y="0px"
	 viewBox="0 0 200 200" style="enable-background:new 0 0 200 200;" xml:space="preserve">
<style type="text/css">
	.st0{fill:#028F3E;}
	.st1{fill:#FFFFFF;}
</style>
<path class="st0" d="M162.5,200h-125C17,200,0,183,0,162.5v-125C0,17,17,0,37.5,0h125C183,0,200,17,200,37.5v125
	C200,183,183,200,162.5,200L162.5,200z"/>
<path class="st1" d="M135.6,114l-16-9.4c-0.8-0.4-2-0.2-2.7,0.4l-4.7,4.7c-0.7,0.7-2,1.2-2.9,1.2c0,0-6,0.1-17.2-11.1
	C81,88.6,81.1,82.6,81.1,82.6c0-0.9,0.6-2.2,1.2-2.9l4-4c0.7-0.7,0.9-1.9,0.5-2.7L78,56.4c-0.4-0.8-1.2-1-1.9-0.3L65.1,67
	c-0.7,0.7-1.3,2-1.4,2.9c0,0-2.1,15.9,20.2,38.2c22.3,22.3,38.2,20.2,38.2,20.2c0.9-0.1,2.2-0.8,2.9-1.4l10.9-10.9
	C136.6,115.3,136.4,114.4,135.6,114z"/>
<path class="st1" d="M100,26.3c-38.8,0-70.2,28.3-70.2,63.2c0,20.7,11.1,39,28.1,50.5v33.7l35.9-21.2c2,0.2,4.1,0.3,6.2,0.3
	c38.8,0,70.2-28.3,70.2-63.2S138.8,26.3,100,26.3z M100,145.7c-2,0-4-0.1-5.6-0.3l-2.2-0.2l-1.9,1.1l-25.3,15V140v-3.7l-3.1-2.1
	c-15.9-10.8-25-27-25-44.7c0-31,28.3-56.2,63.2-56.2s63.2,25.2,63.2,56.2C163.2,120.5,134.8,145.7,100,145.7z"/>
</svg>
