<?xml version="1.0" encoding="utf-8"?>
<!-- Generator: Adobe Illustrator 21.1.0, SVG Export Plug-In . SVG Version: 6.00 Build 0)  -->
<svg version="1.1" id="图层_1" xmlns="http://www.w3.org/2000/svg" xmlns:xlink="http://www.w3.org/1999/xlink" x="0px" y="0px"
	 viewBox="0 0 200 200" style="enable-background:new 0 0 200 200;" xml:space="preserve">
<style type="text/css">
	.st0{fill:#CCCCCC;}
	.st1{fill:#FFFFFF;}
</style>
<title>dhms-no</title>
<path class="st0" d="M0,100C0,44.8,44.8,0,100,0s100,44.8,100,100s-44.8,100-100,100S0,155.2,0,100z"/>
<path class="st1" d="M139.6,133c-0.3-0.5-0.8-1-1.3-1.4c-0.8-0.8-1.5-1.6-2.2-2.2l-10.6-10.6l-2.4-2.4c-0.5-0.5-1-1-1.6-1.5
	c1.1,0.6-1.6-2.2-4.2-0.4l-6.1,6.1l22.2,22.2l4.1-4.1c1.6-1.6,2.7-2.6,2.5-4.1C140.1,134.1,139.9,133.5,139.6,133L139.6,133z"/>
<path class="st1" d="M83,84.3c1.5-1.5,2.6-2.8,2.5-4.3c-0.1-0.7-0.3-1.3-0.6-1.9c-0.3-0.5-0.7-0.9-1.2-1.2l-2.3-2.3L70.6,63.7
	l-2.5-2.5c-0.4-0.5-0.9-0.9-1.4-1.3c-0.5-0.3-1.1-0.5-1.7-0.5c-1.5-0.2-2.5,0.9-4,2.5l-4.2,4.2L79,88.4C80.6,86.7,81.4,85.9,83,84.3
	z"/>
<path class="st1" d="M99.2,121.3c-1.6-1.1-3.1-2.6-4.7-3.7l-1.6-1.3l-2.1-1.8c-0.7-0.7-1.5-1.4-2.2-2l-0.5-0.5l-1.6-1.6l-0.8-0.8
	c-0.7-0.8-1.5-1.6-2.2-2.2s-1.2-1.4-1.9-2.1l-1.1-1.4c-0.9-1.3-2.1-2.4-2.8-3.7c-2-3-4-7-0.9-10c-7.4-7.4-14.8-15-22.2-22.3
	c-0.5,0.6-1,1.2-1.4,1.9c-0.7,1.3-1.2,2.6-1.5,4c-1.2,4.7-1.1,9.7,0.1,14.4c0.8,3.1,1.8,6.2,3,9.1c0.9,2.2,2.2,4.2,3.3,6.4
	c0.9,1.7,2.1,3.3,3.2,5c0.3,0.5,0.8,1,1.1,1.6c1.1,1.7,2.6,3.3,3.8,5c0.5,0.6,1,1.2,1.5,1.8c0.9,0.9,1.6,1.9,2.5,2.8l2.8,3.1
	l0.7,0.7l2.7,2.7l0.7,0.7c0.9,0.9,1.9,1.7,2.8,2.6c0.3,0.3,0.6,0.6,0.9,0.9c1,0.9,2.1,1.8,3.1,2.7l2.8,2.3c0.6,0.4,1.2,0.9,1.8,1.4
	c1.7,1.1,3.3,2.4,5,3.4c2,1.2,4,2.4,5.9,3.4c2,1,4.1,1.9,6.2,2.8c0.9,0.3,1.8,0.7,2.8,0.9c1.2,0.3,2.3,0.7,3.4,0.9
	c4.2,1,8.6,1,12.9,0.1c1.4-0.3,2.8-0.8,4.1-1.5c0.9-0.5,1.8-1.1,2.5-1.8c-7.2-7.2-15-15.1-22.2-22.2C106,126,102.3,123.6,99.2,121.3
	L99.2,121.3z"/>
<path class="st1" d="M125,90.9h8c0-13.3-10.7-24-24-24v8C117.8,74.9,125,82.1,125,90.9C125,91,125,91,125,90.9L125,90.9z"/>
<path class="st1" d="M109.1,50.8v8c17.7,0,32,14.3,31.9,32h8C149,68.8,131.2,50.9,109.1,50.8C109.1,50.8,109.1,50.8,109.1,50.8
	L109.1,50.8z"/>
</svg>
