<?xml version="1.0" encoding="utf-8"?>
<!-- Generator: Adobe Illustrator 21.1.0, SVG Export Plug-In . SVG Version: 6.00 Build 0)  -->
<svg version="1.1" id="图层_1" xmlns="http://www.w3.org/2000/svg" xmlns:xlink="http://www.w3.org/1999/xlink" x="0px" y="0px"
	 viewBox="0 0 200 200" style="enable-background:new 0 0 200 200;" xml:space="preserve">
<style type="text/css">
	.st0{fill:#CCCCCC;}
	.st1{fill:#FFFFFF;}
	.st2{fill:#B2B2B2;}
</style>
<title>jjrpz-no</title>
<path class="st0" d="M0,100C0,44.8,44.8,0,100,0s100,44.8,100,100s-44.8,100-100,100S0,155.2,0,100z"/>
<path class="st1" d="M58.4,50.5v19.8l19.8,26.4h39.6l19.8-26.4V50.5H58.4z"/>
<path class="st1" d="M118.4,96.7H78.8L58.4,70.3V50.5h79.2v19.8L118.4,96.7z M81.5,90.1h33L131,67.7V57.1H65v10.6L81.5,90.1z"/>
<path class="st1" d="M84.8,50.5h26.4v46.2H84.8V50.5z"/>
<path class="st1" d="M111.2,96.7H84.8V50.5h26.4L111.2,96.7z M91.4,90.1h13.2v-33H91.4V90.1z"/>
<path class="st1" d="M58.4,109.9c0,21.9,17.7,39.6,39.6,39.6s39.6-17.7,39.6-39.6l0,0c0-21.9-17.7-39.6-39.6-39.6
	C76.1,70.3,58.4,88,58.4,109.9C58.4,109.9,58.4,109.9,58.4,109.9z"/>
<path class="st1" d="M98,149.5c-21.9,0-39.6-17.7-39.6-39.6S76.1,70.3,98,70.3c21.9,0,39.6,17.7,39.6,39.6
	C137.6,131.7,119.8,149.5,98,149.5z M98,76.9c-18.2,0-33,14.8-33,33s14.8,33,33,33s33-14.8,33-33c0.2-18-14.3-32.8-32.3-33
	C98.5,76.9,98.2,76.9,98,76.9z"/>
<path class="st2" d="M98,122.4l-14.5,7.9l2.6-16.5L74.2,102l16.5-2.6L98,84.9l7.3,14.5l16.5,2.6l-11.9,11.9l2.6,16.5L98,122.4z"/>
</svg>
