<?xml version="1.0" encoding="utf-8"?>
<!-- Generator: Adobe Illustrator 21.1.0, SVG Export Plug-In . SVG Version: 6.00 Build 0)  -->
<svg version="1.1" id="图层_1" xmlns="http://www.w3.org/2000/svg" xmlns:xlink="http://www.w3.org/1999/xlink" x="0px" y="0px"
	 viewBox="0 0 200 200" style="enable-background:new 0 0 200 200;" xml:space="preserve">
<style type="text/css">
	.st0{fill:#678BF2;}
	.st1{fill:#FFFFFF;}
</style>
<path class="st0" d="M162.5,200h-125C17,200,0,183,0,162.5v-125C0,17,17,0,37.5,0h125C183,0,200,17,200,37.5v125
	C200,183,183,200,162.5,200L162.5,200z"/>
<path class="st1" d="M96.7,131.5l-3.9,5.6c0,0-2.8,5.1,2.8,7.7c14.4,6.6,18.2,15,20.4,17.6c2.2,2.7,5.9,2.7,7.6-0.5
	c5.8-11.5,12.3-36.4,41.2-57.9c-34.4,12.5-45,39.3-45,39.3s-6.6-10-14.1-13C99,127.7,96.7,131.5,96.7,131.5z M91.5,154
	c-5.4-2.5-7.7-6.3-8.6-9.2c-2-5.9,0.4-11,1.1-12.4c0.2-0.3,0.3-0.6,0.5-0.9l3.8-5.5c2.1-3.2,6.6-6.6,13-6.6c2.6,0,5.3,0.6,8,1.7
	c3.2,1.3,6.2,3.3,8.7,5.5c1.5-2,3.3-4.3,5.3-6.5c-5.8-3.3-12.5-6.2-18.9-8.4c-0.8-0.3-5.5-2.4-2.6-11.7h0c7.8-8.1,13-21.3,13-34.2
	c0-19.8-12.2-30.2-27.3-30.2S60.3,45.9,60.3,65.8c0,13,5.1,26.1,13,34.2c3.1,8.1-2.4,11.1-3.6,11.6c-15.8,5.8-34.4,16.4-34.4,26.8
	c0,2.8,0,1.1,0,3.9c0,14.2,27.2,17.5,52.4,17.5c4.3,0,8.6-0.1,12.8-0.3C98.3,157.7,95.4,155.8,91.5,154z"/>
</svg>
