<?xml version="1.0" encoding="utf-8"?>
<!-- Generator: Adobe Illustrator 21.1.0, SVG Export Plug-In . SVG Version: 6.00 Build 0)  -->
<svg version="1.1" id="图层_1" xmlns="http://www.w3.org/2000/svg" xmlns:xlink="http://www.w3.org/1999/xlink" x="0px" y="0px"
	 viewBox="0 0 200 200" style="enable-background:new 0 0 200 200;" xml:space="preserve">
<style type="text/css">
	.st0{fill:#CCCCCC;}
	.st1{fill:#FFFFFF;}
</style>
<title>smrz-no</title>
<path class="st0" d="M0,100C0,44.8,44.8,0,100,0s100,44.8,100,100s-44.8,100-100,100S0,155.2,0,100z"/>
<path class="st1" d="M105.3,77H162v11h-56.7V77z M105.3,98.4H162v11h-56.7V98.4z"/>
<path class="st1" d="M57.3,64.4c1.2-1.2,2.5-2.2,4-2.9c2-1,4.2-1.5,6.5-1.5c3.9,0,7.7,1.6,10.5,4.3c2.8,2.8,4.3,6.6,4.3,10.5
	c0,8.2-6.7,14.8-14.9,14.8c-3.9,0-7.6-1.6-10.4-4.3c-0.9-0.9-1.7-2-2.3-3.1c-1.3-2.3-2-4.8-2-7.4C53,70.9,54.6,67.2,57.3,64.4z
	 M38.4,116.6c3.2-12,14.8-20.9,28.8-21h0.5c16.7,0,30.3,12.5,30.3,27.9H37.5C37.5,121.2,37.8,118.8,38.4,116.6z"/>
<path class="st1" d="M162.5,144h-125v-11h125V144z"/>
</svg>
