<?xml version="1.0" encoding="utf-8"?>
<!-- Generator: Adobe Illustrator 21.1.0, SVG Export Plug-In . SVG Version: 6.00 Build 0)  -->
<svg version="1.1" id="图层_1" xmlns="http://www.w3.org/2000/svg" xmlns:xlink="http://www.w3.org/1999/xlink" x="0px" y="0px"
	 viewBox="0 0 222.5 200" style="enable-background:new 0 0 222.5 200;" xml:space="preserve">
<style type="text/css">
	.st0{fill:#BBBBBB;}
</style>
<path class="st0" d="M196.8,152.8l-38.3-22.6c-2-1-4.9-0.6-6.5,1l-11.3,11.3c-1.6,1.6-4.7,2.9-6.9,2.9c0,0-14.4,0.2-41.2-26.6
	C65.7,92,65.8,77.5,65.8,77.5c0-2.2,1.3-5.4,2.9-6.9l9.6-9.6c1.6-1.6,2.1-4.5,1.2-6.6L58.4,14.6c-0.9-2-3-2.4-4.6-0.8L27.6,39.9
	c-1.6,1.6-3.1,4.7-3.4,6.9c0,0-5.1,38.2,48.5,91.8c53.6,53.6,91.8,48.5,91.8,48.5c2.2-0.3,5.3-1.8,6.9-3.4l26.2-26.2
	C199.1,155.9,198.7,153.8,196.8,152.8z"/>
</svg>
