<?xml version="1.0" encoding="utf-8"?>
<!-- Generator: Adobe Illustrator 21.1.0, SVG Export Plug-In . SVG Version: 6.00 Build 0)  -->
<svg version="1.1" id="图层_1" xmlns="http://www.w3.org/2000/svg" xmlns:xlink="http://www.w3.org/1999/xlink" x="0px" y="0px"
	 viewBox="0 0 222.5 200" style="enable-background:new 0 0 222.5 200;" xml:space="preserve">
<style type="text/css">
	.st0{fill:#77A559;}
</style>
<g>
	<path class="st0" d="M12.6,102.3l11.4,5.9c0,0,5.2,3,7.9-2.6l28.2-59c0,0,2.7-5-1.7-7.4L46,33.1c0,0-3.9-2.2-6.4,2.4
		c-0.1,1.8-29,60.1-29,60.1S8.9,100.4,12.6,102.3z"/>
	<path class="st0" d="M198.8,108.3l11.6-5.4c0,0,5.6-2.3,2.9-7.8l-29-58.6c0,0-2.3-5.2-6.9-3.2l-12.4,6c0,0-4.1,1.7-2.1,6.5
		c1.4,1.2,29.5,59.9,29.5,59.9S194.9,110.1,198.8,108.3z"/>
	<path class="st0" d="M40.2,108.1L44,100l13.5,17c0,0,8.8-2,11.8,3.5c0,0,2.9,3.3,1.6,9.6c0,0,1.8,1.3,2,2.1c0,0,6-1.5,9.7,2.8
		c0,0,3.3,2.7,3,7.8c0,0,2.4,1,2.9,2.4c0,0,5.9-1.5,8.8,2c0,0,3.5,3.3,3.3,7.1l5.5,4c0,0,5.1,0.4,6,4.4l4.9,3.6c0,0,7.9,3.1,8.3-4.8
		l-18.5-14.1c0,0-2.2-5.7,4.6-4.8l27.6,19.5c0,0,4.5,1.9,7.3-2.4c0,0,2.7-3.7-1.1-7.7l-29.4-21.2c0,0-2.6-5.9,4.1-5.5l34.9,24.7
		c0,0,5,2,7-1.7c0,0,2.8-3.7,0-7.5L123.3,113c0,0-2.3-6.7,4.9-5l39.7,28.3c0,0,6,1.9,8.7-3c0,0,3.4-5.3-1.2-9.6l-56.2-49
		c0,0-10.4-5-16.7,5.4c0,0-1.1,17-20,20.1c0,0-12.9-1-9.9-9.4c0,0,3.8-5,3.5-15.5c0,0,0.4-7.6,5.7-14H61.6L66,52h30.5
		c0,0,12.5-7.1,22-6.5c0,0,12.3,0.7,15.6,2.6c0,0,16.3,5.2,23.7,4l27.3,56.7l-4.3,9.9c0,0,8,8.2,2.1,18.2c-1.6,3.3-5.9,6.6-12.8,6.9
		c0,0,1.1,6.7-3.8,10.5c0,0-3.6,4.9-12.2,3.5c0,0,0.5,5.9-5.2,9.9c0,0-6.8,5.8-17.3-1.3c0,0-1.7,6.7-10,8.1c0,0-6.1,1-9.7-2.5
		c0,0-6.4,12.1-15.5,5.3c0,0-5.8-4.8-1.7-11.5c0,0-7.8,12.3-17,3c0,0-5.1-3.8-0.4-11.9c0,0-7.3,8.3-15.4,0.8c0,0-5.5-4.5-1.1-12.9
		c0,0-7.5,8.9-16.2,0.4c0,0-3.7-3.4-1.6-10.9l8.4-11.5L40.2,108.1z"/>
</g>
</svg>
