<?xml version="1.0" encoding="utf-8"?>
<!-- Generator: Adobe Illustrator 21.1.0, SVG Export Plug-In . SVG Version: 6.00 Build 0)  -->
<svg version="1.1" id="图层_1" xmlns="http://www.w3.org/2000/svg" xmlns:xlink="http://www.w3.org/1999/xlink" x="0px" y="0px"
	 viewBox="0 0 222.5 200" style="enable-background:new 0 0 222.5 200;" xml:space="preserve">
<style type="text/css">
	.st0{fill:#DDDDDD;}
	.st1{fill:#FFFFFF;}
</style>
<path class="st0" d="M61.2,1h99.6l-20.2,35.3H81.7L61.2,1z M34.8,37L59,2l45.3,79.4c-21.7,2.9-34.4,16-34.4,16L34.8,37z M151.1,96.4
	c0,0-13.6-12.8-33.5-14.5L163,2l24.2,35L151.1,96.4z"/>
<circle class="st0" cx="111" cy="142.2" r="58.8"/>
<path class="st1" d="M112,110.2l10.4,21.1l23.2,3.4L128.8,151l4,23.2L112,163.2l-20.8,10.9l4-23.2l-16.8-16.4l23.2-3.4L112,110.2z"
	/>
</svg>
