<?xml version="1.0" encoding="utf-8"?>
<!-- Generator: Adobe Illustrator 21.1.0, SVG Export Plug-In . SVG Version: 6.00 Build 0)  -->
<svg version="1.1" id="图层_1" xmlns="http://www.w3.org/2000/svg" xmlns:xlink="http://www.w3.org/1999/xlink" x="0px" y="0px"
	 viewBox="0 0 222.5 200" style="enable-background:new 0 0 222.5 200;" xml:space="preserve">
<style type="text/css">
	.st0{fill:#BBD1AC;}
	.st1{fill:#77A559;}
	.st2{fill:#FFFFFF;}
</style>
<polygon class="st0" points="127.6,84.2 187.6,84.2 187.6,94.6 127.6,94.6 "/>
<path class="st1" d="M155.8,160.5l1.5-0.5H36.6c-6.4,0-9.8-3.6-9.8-8.3v-109c0-4.7,3.4-8.8,7.8-8.8h157.7c4.4,0,7.8,3.6,7.8,8.3
	v75.4l0.5,0.5c2.5,1.6,4.9,3.6,6.9,6.2l2,2.6V40.1c0-8.8-6.9-16.1-15.2-16.1H32.2C23.9,24,17,31.3,17,40.1v114.2
	c0,8.8,6.9,16.1,15.2,16.1h132l-4.9-4C157.3,163.7,157.3,163.1,155.8,160.5z"/>
<polygon class="st1" points="127.6,107 145.3,107 145.3,117.4 127.6,117.4 "/>
<rect x="127.6" y="61.9" class="st1" width="60" height="10.4"/>
<rect x="127.6" y="84.5" class="st1" width="60" height="10.4"/>
<path class="st1" d="M182.4,108.6c-19.3,0-34.4,15-34.4,34.3c0,18.7,15.6,34.3,34.4,34.3c19.3,0,34.4-15.1,34.4-34.3
	C216.8,123.7,201.1,108.6,182.4,108.6L182.4,108.6z"/>
<path class="st2" d="M181.8,163.6c-1.6,1.6-4.7,1.6-6.8,0l-14.6-14.5c-1.6-1.6-1.6-4.7,0-6.2c1.6-1.6,4.7-1.6,6.8,0l11.5,11.4
	l22.4-21.8c1.6-1.6,4.7-1.6,6.8,0c1.6,1.6,1.6,4.7,0,6.2L181.8,163.6L181.8,163.6z"/>
<path class="st1" d="M106.3,75.6c0-15.3-12.4-27.7-27.7-27.7S51,60.3,51,75.6l0,0c0,8.2,3.6,15.5,9.2,20.6
	c-15.7,7.2-25.8,22.9-25.8,40.2h88.5c0-17.9-10.6-33.2-25.8-40.2C102.9,91,106.3,83.5,106.3,75.6L106.3,75.6z"/>
<path class="st1" d="M162.5,153v6.1l5.5-1.5l-2-1.6C164.7,155,163.6,154,162.5,153z"/>
<path class="st1" d="M33.2,177.4c2.3,8.5,10.8,13.7,18.9,11.6l89.3-24.2h-39.7l-49.9,13.5c-4.3,1.2-8.5-1.5-9.7-6L38.8,160H28.5
	L33.2,177.4z"/>
<path class="st1" d="M189.2,17c-2.3-8.5-10.8-13.7-18.9-11.6L13.9,47.7c-8,2.2-12.8,11-10.5,19.5l23.4,86.5v-37.9l0,0L13.6,67.2
	c-1.2-4.5,1-9.4,5.3-10.6l152.2-41.2c4.3-1.2,8.5,1.5,9.7,6l2.3,8.6h9.6L189.2,17z"/>
<polygon class="st1" points="26.8,160 28.5,160 26.8,153.7 "/>
</svg>
